<svg width="900" height="260" viewBox="0 0 900 260" xmlns="http://www.w3.org/2000/svg">
  <defs>
    <pattern id="grid" width="16" height="16" patternUnits="userSpaceOnUse">
      <path d="M 16 0 L 0 0 0 16" fill="none" stroke="#1a2a1a" stroke-width="0.6"/>
    </pattern>
  </defs>
  <rect width="900" height="260" fill="#080c08"/>
  <rect width="900" height="260" fill="url(#grid)" opacity="0.6"/>
  <rect x="0" y="0" width="3" height="260" fill="#39ff6e"/>

  <!-- section label bar -->
  <rect x="0" y="0" width="900" height="40" fill="#0d130d"/>
  <rect x="0" y="40" width="900" height="1" fill="#1f2e1f"/>
  <text x="16" y="26" font-family="'IBM Plex Mono', monospace" font-size="11" fill="#39ff6e">▸</text>
  <text x="30" y="26" font-family="'IBM Plex Mono', monospace" font-size="13" font-weight="600" fill="#b8d4b8" letter-spacing="3">CONNECT</text>

  <!-- 5 link cards — 2 rows -->
  <!-- GitHub -->
  <a href="https://github.com/4rnav-here">
    <rect x="20" y="56" width="168" height="78" fill="#0d130d" rx="0"/>
    <rect x="20" y="56" width="168" height="78" fill="none" stroke="#1f2e1f" stroke-width="1.5"/>
    <rect x="20" y="56" width="3" height="78" fill="#39ff6e"/>
    <text x="36" y="80" font-family="'IBM Plex Mono', monospace" font-size="9" fill="#2a4a2a" letter-spacing="2">GITHUB</text>
    <text x="36" y="100" font-family="'IBM Plex Mono', monospace" font-size="14" font-weight="600" fill="#39ff6e" letter-spacing="0.5">4rnav-here</text>
    <text x="36" y="120" font-family="'IBM Plex Mono', monospace" font-size="10" fill="#2a5a3a">→ github.com</text>
  </a>

  <!-- Portfolio -->
  <a href="https://arnavtrivedi.vercel.app/">
    <rect x="198" y="56" width="168" height="78" fill="#0d130d" rx="0"/>
    <rect x="198" y="56" width="168" height="78" fill="none" stroke="#1f2e1f" stroke-width="1.5"/>
    <rect x="198" y="56" width="3" height="78" fill="#00e5cc"/>
    <text x="214" y="80" font-family="'IBM Plex Mono', monospace" font-size="9" fill="#2a5a4a" letter-spacing="2">PORTFOLIO</text>
    <text x="214" y="100" font-family="'IBM Plex Mono', monospace" font-size="14" font-weight="600" fill="#00e5cc" letter-spacing="0.5">arnavtrivedi</text>
    <text x="214" y="120" font-family="'IBM Plex Mono', monospace" font-size="10" fill="#2a5a4a">→ vercel.app</text>
  </a>

  <!-- LinkedIn -->
  <a href="https://linkedin.com/in/arnavtrivedi2004">
    <rect x="376" y="56" width="168" height="78" fill="#0d130d" rx="0"/>
    <rect x="376" y="56" width="168" height="78" fill="none" stroke="#1f2e1f" stroke-width="1.5"/>
    <rect x="376" y="56" width="3" height="78" fill="#39ff6e"/>
    <text x="392" y="80" font-family="'IBM Plex Mono', monospace" font-size="9" fill="#2a4a2a" letter-spacing="2">LINKEDIN</text>
    <text x="392" y="100" font-family="'IBM Plex Mono', monospace" font-size="14" font-weight="600" fill="#39ff6e" letter-spacing="0.5">arnavtrivedi</text>
    <text x="392" y="120" font-family="'IBM Plex Mono', monospace" font-size="10" fill="#2a4a2a">→ /in/arnavtrivedi2004</text>
  </a>

  <!-- Instagram -->
  <a href="https://instagram.com/arnavtrivedi_">
    <rect x="554" y="56" width="168" height="78" fill="#0d130d" rx="0"/>
    <rect x="554" y="56" width="168" height="78" fill="none" stroke="#1f2e1f" stroke-width="1.5"/>
    <rect x="554" y="56" width="3" height="78" fill="#39ff6e"/>
    <text x="570" y="80" font-family="'IBM Plex Mono', monospace" font-size="9" fill="#2a4a2a" letter-spacing="2">INSTAGRAM</text>
    <text x="570" y="100" font-family="'IBM Plex Mono', monospace" font-size="14" font-weight="600" fill="#39ff6e" letter-spacing="0.5">@arnavtrivedi_</text>
    <text x="570" y="120" font-family="'IBM Plex Mono', monospace" font-size="10" fill="#2a4a2a">→ instagram.com</text>
  </a>

  <!-- Email -->
  <a href="mailto:arnavtrivediofficial@gmail.com">
    <rect x="732" y="56" width="148" height="78" fill="#0d130d" rx="0"/>
    <rect x="732" y="56" width="148" height="78" fill="none" stroke="#1f2e1f" stroke-width="1.5"/>
    <rect x="732" y="56" width="3" height="78" fill="#00e5cc"/>
    <text x="748" y="80" font-family="'IBM Plex Mono', monospace" font-size="9" fill="#2a5a4a" letter-spacing="2">EMAIL</text>
    <text x="748" y="100" font-family="'IBM Plex Mono', monospace" font-size="14" font-weight="600" fill="#00e5cc" letter-spacing="0.5">say hello</text>
    <text x="748" y="120" font-family="'IBM Plex Mono', monospace" font-size="10" fill="#2a5a4a">→ gmail</text>
  </a>

  <!-- divider -->
  <line x1="20" y1="152" x2="880" y2="152" stroke="#1a2a1a" stroke-width="1"/>

  <!-- quote block -->
  <rect x="20" y="162" width="860" height="76" fill="#050a05" rx="0"/>
  <rect x="20" y="162" width="860" height="76" fill="none" stroke="#1a2a1a" stroke-width="1"/>
  <rect x="20" y="162" width="3" height="76" fill="#1f2e1f"/>

  <text x="450" y="193" text-anchor="middle" font-family="'IBM Plex Mono', monospace" font-size="13" fill="#2a4a2a" letter-spacing="0.5">// if my code works, don't touch it.</text>
  <text x="450" y="217" text-anchor="middle" font-family="'IBM Plex Mono', monospace" font-size="13" fill="#2a4a2a" letter-spacing="0.5">// if it doesn't — also don't touch it.</text>

  <rect x="0" y="258" width="900" height="2" fill="#1f2e1f"/>
</svg>
